<mxfile host="app.diagrams.net" modified="2021-09-03T07:48:44.424Z" agent="5.0 (Windows NT 10.0; Win64; x64) AppleWebKit/537.36 (KHTML, like Gecko) Chrome/93.0.4577.63 Safari/537.36" etag="qX0CxzkMJuEtUauJjsir" version="15.0.6" type="github">
  <diagram name="Page-1" id="b98fa263-6416-c6ec-5b7d-78bf54ef71d0">
    <mxGraphModel dx="2031" dy="1101" grid="1" gridSize="10" guides="1" tooltips="1" connect="1" arrows="1" fold="1" page="1" pageScale="1.5" pageWidth="1169" pageHeight="826" background="#114B5F" math="0" shadow="0">
      <root>
        <mxCell id="0" style=";html=1;" />
        <mxCell id="1" style=";html=1;" parent="0" />
        <mxCell id="303ed1de8c2c98b4-3" value="&lt;p class=&quot;MsoNormal&quot; style=&quot;font-size: 20px&quot;&gt;&lt;span&gt;&lt;font face=&quot;宋体&quot; style=&quot;font-size: 20px&quot;&gt;大学生可视化记账分析&lt;/font&gt;&lt;font face=&quot;Times New Roman&quot; style=&quot;font-size: 20px&quot;&gt;APP&lt;/font&gt;&lt;/span&gt;&lt;/p&gt;" style="whiteSpace=wrap;html=1;rounded=1;shadow=1;strokeWidth=1;fontSize=16;align=center;fillColor=#F45B69;strokeColor=#028090;fontColor=#E4FDE1;" parent="1" vertex="1">
          <mxGeometry x="585" y="245" width="600" height="40" as="geometry" />
        </mxCell>
        <mxCell id="303ed1de8c2c98b4-4" value="功能结构图" style="whiteSpace=wrap;html=1;rounded=1;shadow=1;strokeWidth=2;fontSize=17;align=center;fillColor=#F45B69;strokeColor=#028090;fontColor=#E4FDE1;" parent="1" vertex="1">
          <mxGeometry x="630" y="335" width="510" height="40" as="geometry" />
        </mxCell>
        <mxCell id="303ed1de8c2c98b4-5" value="记账模块" style="whiteSpace=wrap;html=1;rounded=1;shadow=1;strokeWidth=2;fontSize=17;align=center;fillColor=#F45B69;strokeColor=#028090;fontColor=#E4FDE1;" parent="1" vertex="1">
          <mxGeometry x="440" y="415" width="275" height="40" as="geometry" />
        </mxCell>
        <mxCell id="303ed1de8c2c98b4-6" value="推荐板块" style="whiteSpace=wrap;html=1;rounded=1;shadow=1;strokeWidth=2;fontSize=17;align=center;fillColor=#F45B69;strokeColor=#028090;fontColor=#E4FDE1;" parent="1" vertex="1">
          <mxGeometry x="755" y="415" width="275" height="40" as="geometry" />
        </mxCell>
        <mxCell id="303ed1de8c2c98b4-7" value="登录模块" style="whiteSpace=wrap;html=1;rounded=1;shadow=1;strokeWidth=2;fontSize=17;align=center;fillColor=#F45B69;strokeColor=#028090;fontColor=#E4FDE1;" parent="1" vertex="1">
          <mxGeometry x="118" y="415" width="275" height="40" as="geometry" />
        </mxCell>
        <mxCell id="303ed1de8c2c98b4-8" value="数据管理" style="whiteSpace=wrap;html=1;rounded=1;shadow=1;strokeWidth=2;fontSize=17;align=center;fillColor=#F45B69;strokeColor=#028090;fontColor=#E4FDE1;" parent="1" vertex="1">
          <mxGeometry x="1057" y="415" width="275" height="40" as="geometry" />
        </mxCell>
        <mxCell id="303ed1de8c2c98b4-9" value="设置模块" style="whiteSpace=wrap;html=1;rounded=1;shadow=1;strokeWidth=2;fontSize=17;align=center;fillColor=#F45B69;strokeColor=#028090;fontColor=#E4FDE1;" parent="1" vertex="1">
          <mxGeometry x="1357" y="415" width="275" height="40" as="geometry" />
        </mxCell>
        <mxCell id="303ed1de8c2c98b4-10" value="编辑账目" style="whiteSpace=wrap;html=1;rounded=1;shadow=1;strokeWidth=2;fontSize=17;align=center;fillColor=#F45B69;strokeColor=#028090;fontColor=#E4FDE1;" parent="1" vertex="1">
          <mxGeometry x="440" y="485" width="125" height="80" as="geometry" />
        </mxCell>
        <mxCell id="303ed1de8c2c98b4-12" value="记账查询" style="whiteSpace=wrap;html=1;rounded=1;shadow=1;strokeWidth=2;fontSize=17;align=center;fillColor=#F45B69;strokeColor=#028090;fontColor=#E4FDE1;" parent="1" vertex="1">
          <mxGeometry x="590" y="485" width="125" height="80" as="geometry" />
        </mxCell>
        <mxCell id="303ed1de8c2c98b4-13" value="理财商业&lt;br style=&quot;font-size: 17px;&quot;&gt;课程推荐" style="whiteSpace=wrap;html=1;rounded=1;shadow=1;strokeWidth=2;fontSize=17;align=center;fillColor=#F45B69;strokeColor=#028090;fontColor=#E4FDE1;" parent="1" vertex="1">
          <mxGeometry x="755" y="485" width="125" height="80" as="geometry" />
        </mxCell>
        <mxCell id="303ed1de8c2c98b4-14" value="免费课程" style="whiteSpace=wrap;html=1;rounded=1;shadow=1;strokeWidth=2;fontSize=17;align=center;fillColor=#F45B69;strokeColor=#028090;fontColor=#E4FDE1;" parent="1" vertex="1">
          <mxGeometry x="905" y="485" width="125" height="80" as="geometry" />
        </mxCell>
        <mxCell id="303ed1de8c2c98b4-15" value="密码登录" style="whiteSpace=wrap;html=1;rounded=1;shadow=1;strokeWidth=2;fontSize=17;align=center;fillColor=#F45B69;strokeColor=#028090;fontColor=#E4FDE1;" parent="1" vertex="1">
          <mxGeometry x="118" y="485" width="125" height="80" as="geometry" />
        </mxCell>
        <mxCell id="303ed1de8c2c98b4-16" value="免密登录" style="whiteSpace=wrap;html=1;rounded=1;shadow=1;strokeWidth=2;fontSize=17;align=center;fillColor=#F45B69;strokeColor=#028090;fontColor=#E4FDE1;" parent="1" vertex="1">
          <mxGeometry x="268" y="485" width="125" height="80" as="geometry" />
        </mxCell>
        <mxCell id="303ed1de8c2c98b4-17" value="账本历史查询" style="whiteSpace=wrap;html=1;rounded=1;shadow=1;strokeWidth=2;fontSize=17;align=center;fillColor=#F45B69;strokeColor=#028090;fontColor=#E4FDE1;" parent="1" vertex="1">
          <mxGeometry x="1057" y="485" width="125" height="80" as="geometry" />
        </mxCell>
        <mxCell id="303ed1de8c2c98b4-18" value="Customer Service" style="whiteSpace=wrap;html=1;rounded=1;shadow=1;strokeWidth=2;fontSize=17;align=center;fillColor=#F45B69;strokeColor=#028090;fontColor=#E4FDE1;" parent="1" vertex="1">
          <mxGeometry x="1207" y="485" width="125" height="80" as="geometry" />
        </mxCell>
        <mxCell id="303ed1de8c2c98b4-19" value="主题设置" style="whiteSpace=wrap;html=1;rounded=1;shadow=1;strokeWidth=2;fontSize=17;align=center;fillColor=#F45B69;strokeColor=#028090;fontColor=#E4FDE1;" parent="1" vertex="1">
          <mxGeometry x="1357" y="485" width="125" height="80" as="geometry" />
        </mxCell>
        <mxCell id="303ed1de8c2c98b4-20" value="账本初始化" style="whiteSpace=wrap;html=1;rounded=1;shadow=1;strokeWidth=2;fontSize=17;align=center;fillColor=#F45B69;strokeColor=#028090;fontColor=#E4FDE1;" parent="1" vertex="1">
          <mxGeometry x="1507" y="485" width="125" height="80" as="geometry" />
        </mxCell>
        <mxCell id="303ed1de8c2c98b4-21" value="账目分类" style="whiteSpace=wrap;html=1;rounded=1;shadow=1;strokeWidth=2;fontSize=17;align=center;fillColor=#F45B69;strokeColor=#028090;fontColor=#E4FDE1;" parent="1" vertex="1">
          <mxGeometry x="440" y="595" width="125" height="80" as="geometry" />
        </mxCell>
        <mxCell id="303ed1de8c2c98b4-22" value="账目记录" style="whiteSpace=wrap;html=1;rounded=1;shadow=1;strokeWidth=2;fontSize=17;align=center;fillColor=#F45B69;strokeColor=#028090;fontColor=#E4FDE1;" parent="1" vertex="1">
          <mxGeometry x="590" y="595" width="125" height="80" as="geometry" />
        </mxCell>
        <mxCell id="303ed1de8c2c98b4-23" value="公众号" style="whiteSpace=wrap;html=1;rounded=1;shadow=1;strokeWidth=2;fontSize=17;align=center;fillColor=#F45B69;strokeColor=#028090;fontColor=#E4FDE1;" parent="1" vertex="1">
          <mxGeometry x="755" y="595" width="125" height="80" as="geometry" />
        </mxCell>
        <mxCell id="303ed1de8c2c98b4-24" value="网站" style="whiteSpace=wrap;html=1;rounded=1;shadow=1;strokeWidth=2;fontSize=17;align=center;fillColor=#F45B69;strokeColor=#028090;fontColor=#E4FDE1;" parent="1" vertex="1">
          <mxGeometry x="905" y="595" width="125" height="80" as="geometry" />
        </mxCell>
        <mxCell id="303ed1de8c2c98b4-27" value="分类管理" style="whiteSpace=wrap;html=1;rounded=1;shadow=1;strokeWidth=2;fontSize=17;align=center;fillColor=#F45B69;strokeColor=#028090;fontColor=#E4FDE1;" parent="1" vertex="1">
          <mxGeometry x="1057" y="595" width="125" height="80" as="geometry" />
        </mxCell>
        <mxCell id="303ed1de8c2c98b4-29" value="备份和同步" style="whiteSpace=wrap;html=1;rounded=1;shadow=1;strokeWidth=2;fontSize=17;align=center;fillColor=#F45B69;strokeColor=#028090;fontColor=#E4FDE1;" parent="1" vertex="1">
          <mxGeometry x="1357" y="595" width="125" height="80" as="geometry" />
        </mxCell>
        <mxCell id="303ed1de8c2c98b4-30" value="软件保护" style="whiteSpace=wrap;html=1;rounded=1;shadow=1;strokeWidth=2;fontSize=17;align=center;fillColor=#F45B69;strokeColor=#028090;fontColor=#E4FDE1;" parent="1" vertex="1">
          <mxGeometry x="1507" y="595" width="125" height="80" as="geometry" />
        </mxCell>
        <mxCell id="303ed1de8c2c98b4-31" value="年、月账目&lt;br style=&quot;font-size: 17px;&quot;&gt;可视分析" style="whiteSpace=wrap;html=1;rounded=1;shadow=1;strokeWidth=2;fontSize=17;align=center;fillColor=#F45B69;strokeColor=#028090;fontColor=#E4FDE1;" parent="1" vertex="1">
          <mxGeometry x="440" y="705" width="125" height="80" as="geometry" />
        </mxCell>
        <mxCell id="303ed1de8c2c98b4-33" value="大牛" style="whiteSpace=wrap;html=1;rounded=1;shadow=1;strokeWidth=2;fontSize=17;align=center;fillColor=#F45B69;strokeColor=#028090;fontColor=#E4FDE1;" parent="1" vertex="1">
          <mxGeometry x="755" y="705" width="125" height="80" as="geometry" />
        </mxCell>
        <mxCell id="303ed1de8c2c98b4-37" value="个人信息管理" style="whiteSpace=wrap;html=1;rounded=1;shadow=1;strokeWidth=2;fontSize=17;align=center;fillColor=#F45B69;strokeColor=#028090;fontColor=#E4FDE1;" parent="1" vertex="1">
          <mxGeometry x="1057" y="705" width="125" height="80" as="geometry" />
        </mxCell>
        <mxCell id="303ed1de8c2c98b4-39" value="头像管理" style="whiteSpace=wrap;html=1;rounded=1;shadow=1;strokeWidth=2;fontSize=17;align=center;fillColor=#F45B69;strokeColor=#028090;fontColor=#E4FDE1;" parent="1" vertex="1">
          <mxGeometry x="1357" y="705" width="125" height="80" as="geometry" />
        </mxCell>
        <mxCell id="303ed1de8c2c98b4-40" value="求助反馈" style="whiteSpace=wrap;html=1;rounded=1;shadow=1;strokeWidth=2;fontSize=17;align=center;fillColor=#F45B69;strokeColor=#028090;fontColor=#E4FDE1;" parent="1" vertex="1">
          <mxGeometry x="1507" y="705" width="125" height="80" as="geometry" />
        </mxCell>
        <mxCell id="303ed1de8c2c98b4-41" value="消费数据导出&lt;br style=&quot;font-size: 17px;&quot;&gt;消费报告" style="whiteSpace=wrap;html=1;rounded=1;shadow=1;strokeWidth=2;fontSize=17;align=center;fillColor=#F45B69;strokeColor=#028090;fontColor=#E4FDE1;" parent="1" vertex="1">
          <mxGeometry x="440" y="815" width="125" height="80" as="geometry" />
        </mxCell>
        <mxCell id="303ed1de8c2c98b4-49" value="退出登录" style="whiteSpace=wrap;html=1;rounded=1;shadow=1;strokeWidth=2;fontSize=17;align=center;fillColor=#F45B69;strokeColor=#028090;fontColor=#E4FDE1;" parent="1" vertex="1">
          <mxGeometry x="1357" y="815" width="125" height="80" as="geometry" />
        </mxCell>
        <mxCell id="303ed1de8c2c98b4-50" value="账本分享" style="whiteSpace=wrap;html=1;rounded=1;shadow=1;strokeWidth=2;fontSize=17;align=center;fillColor=#F45B69;strokeColor=#028090;fontColor=#E4FDE1;" parent="1" vertex="1">
          <mxGeometry x="1507" y="815" width="125" height="80" as="geometry" />
        </mxCell>
        <mxCell id="303ed1de8c2c98b4-59" value="通知管理" style="whiteSpace=wrap;html=1;rounded=1;shadow=1;strokeWidth=2;fontSize=17;align=center;fillColor=#F45B69;strokeColor=#028090;fontColor=#E4FDE1;" parent="1" vertex="1">
          <mxGeometry x="1357" y="925" width="125" height="80" as="geometry" />
        </mxCell>
        <mxCell id="303ed1de8c2c98b4-60" value="权限管理" style="whiteSpace=wrap;html=1;rounded=1;shadow=1;strokeWidth=2;fontSize=17;align=center;fillColor=#F45B69;strokeColor=#028090;fontColor=#E4FDE1;" parent="1" vertex="1">
          <mxGeometry x="1507" y="925" width="125" height="80" as="geometry" />
        </mxCell>
        <mxCell id="303ed1de8c2c98b4-69" value="邮箱绑定" style="whiteSpace=wrap;html=1;rounded=1;shadow=1;strokeWidth=2;fontSize=17;align=center;fillColor=#F45B69;strokeColor=#028090;fontColor=#E4FDE1;" parent="1" vertex="1">
          <mxGeometry x="119" y="595" width="125" height="80" as="geometry" />
        </mxCell>
        <mxCell id="303ed1de8c2c98b4-70" value="注册" style="whiteSpace=wrap;html=1;rounded=1;shadow=1;strokeWidth=2;fontSize=17;align=center;fillColor=#F45B69;strokeColor=#028090;fontColor=#E4FDE1;" parent="1" vertex="1">
          <mxGeometry x="269" y="595" width="125" height="80" as="geometry" />
        </mxCell>
        <mxCell id="303ed1de8c2c98b4-74" value="书籍" style="whiteSpace=wrap;html=1;rounded=1;shadow=1;strokeWidth=2;fontSize=17;align=center;fillColor=#F45B69;strokeColor=#028090;fontColor=#E4FDE1;" parent="1" vertex="1">
          <mxGeometry x="905" y="705" width="125" height="80" as="geometry" />
        </mxCell>
        <mxCell id="303ed1de8c2c98b4-75" value="工具" style="whiteSpace=wrap;html=1;rounded=1;shadow=1;strokeWidth=2;fontSize=17;align=center;fillColor=#F45B69;strokeColor=#028090;fontColor=#E4FDE1;" parent="1" vertex="1">
          <mxGeometry x="755" y="815" width="125" height="80" as="geometry" />
        </mxCell>
        <mxCell id="303ed1de8c2c98b4-76" value="语音输入" style="whiteSpace=wrap;html=1;rounded=1;shadow=1;strokeWidth=2;fontSize=17;align=center;fillColor=#F45B69;strokeColor=#028090;fontColor=#E4FDE1;" parent="1" vertex="1">
          <mxGeometry x="590" y="705" width="125" height="80" as="geometry" />
        </mxCell>
        <mxCell id="303ed1de8c2c98b4-79" style="edgeStyle=orthogonalEdgeStyle;html=1;startSize=6;endFill=0;endSize=6;strokeWidth=1;fontSize=16;rounded=0;endArrow=none;labelBackgroundColor=#114B5F;strokeColor=#028090;fontColor=#E4FDE1;" parent="1" source="303ed1de8c2c98b4-3" target="303ed1de8c2c98b4-4" edge="1">
          <mxGeometry relative="1" as="geometry" />
        </mxCell>
        <mxCell id="303ed1de8c2c98b4-80" style="edgeStyle=orthogonalEdgeStyle;html=1;startSize=6;endFill=0;endSize=6;strokeWidth=2;fontSize=17;rounded=0;endArrow=none;fillColor=#F45B69;strokeColor=#028090;labelBackgroundColor=#114B5F;fontColor=#E4FDE1;" parent="1" source="303ed1de8c2c98b4-4" target="303ed1de8c2c98b4-5" edge="1">
          <mxGeometry relative="1" as="geometry">
            <Array as="points">
              <mxPoint x="886" y="390" />
              <mxPoint x="578" y="390" />
            </Array>
          </mxGeometry>
        </mxCell>
        <mxCell id="303ed1de8c2c98b4-81" style="edgeStyle=elbowEdgeStyle;html=1;startSize=6;endFill=0;endSize=6;strokeWidth=2;fontSize=17;rounded=0;endArrow=none;fillColor=#F45B69;strokeColor=#028090;labelBackgroundColor=#114B5F;fontColor=#E4FDE1;" parent="1" source="303ed1de8c2c98b4-4" target="303ed1de8c2c98b4-6" edge="1">
          <mxGeometry relative="1" as="geometry">
            <Array as="points">
              <mxPoint x="885" y="395" />
            </Array>
          </mxGeometry>
        </mxCell>
        <mxCell id="303ed1de8c2c98b4-82" style="edgeStyle=orthogonalEdgeStyle;html=1;startSize=6;endFill=0;endSize=6;strokeWidth=2;fontSize=17;rounded=0;endArrow=none;exitX=0.5;exitY=1;fillColor=#F45B69;strokeColor=#028090;labelBackgroundColor=#114B5F;fontColor=#E4FDE1;" parent="1" source="303ed1de8c2c98b4-4" target="303ed1de8c2c98b4-7" edge="1">
          <mxGeometry relative="1" as="geometry">
            <Array as="points">
              <mxPoint x="885" y="390" />
              <mxPoint x="260" y="390" />
            </Array>
          </mxGeometry>
        </mxCell>
        <mxCell id="303ed1de8c2c98b4-83" style="edgeStyle=orthogonalEdgeStyle;html=1;startSize=6;endFill=0;endSize=6;strokeWidth=2;fontSize=17;rounded=0;endArrow=none;fillColor=#F45B69;strokeColor=#028090;labelBackgroundColor=#114B5F;fontColor=#E4FDE1;" parent="1" source="303ed1de8c2c98b4-4" target="303ed1de8c2c98b4-8" edge="1">
          <mxGeometry relative="1" as="geometry">
            <Array as="points">
              <mxPoint x="885" y="390" />
              <mxPoint x="1195" y="390" />
            </Array>
          </mxGeometry>
        </mxCell>
        <mxCell id="303ed1de8c2c98b4-84" style="edgeStyle=orthogonalEdgeStyle;html=1;startSize=6;endFill=0;endSize=6;strokeWidth=2;fontSize=17;rounded=0;endArrow=none;fillColor=#F45B69;strokeColor=#028090;labelBackgroundColor=#114B5F;fontColor=#E4FDE1;" parent="1" source="303ed1de8c2c98b4-4" target="303ed1de8c2c98b4-9" edge="1">
          <mxGeometry relative="1" as="geometry">
            <Array as="points">
              <mxPoint x="885" y="390" />
              <mxPoint x="1494" y="390" />
            </Array>
          </mxGeometry>
        </mxCell>
        <mxCell id="303ed1de8c2c98b4-85" style="edgeStyle=orthogonalEdgeStyle;html=1;startSize=6;endFill=0;endSize=6;strokeWidth=2;fontSize=17;rounded=0;entryX=1;entryY=0.5;endArrow=none;fillColor=#F45B69;strokeColor=#028090;labelBackgroundColor=#114B5F;fontColor=#E4FDE1;" parent="1" source="303ed1de8c2c98b4-5" target="303ed1de8c2c98b4-10" edge="1">
          <mxGeometry relative="1" as="geometry">
            <Array as="points">
              <mxPoint x="578" y="525" />
            </Array>
          </mxGeometry>
        </mxCell>
        <mxCell id="303ed1de8c2c98b4-86" style="edgeStyle=orthogonalEdgeStyle;html=1;startSize=6;endFill=0;endSize=6;strokeWidth=2;fontSize=17;rounded=0;entryX=1;entryY=0.5;endArrow=none;fillColor=#F45B69;strokeColor=#028090;labelBackgroundColor=#114B5F;fontColor=#E4FDE1;" parent="1" source="303ed1de8c2c98b4-5" target="303ed1de8c2c98b4-21" edge="1">
          <mxGeometry relative="1" as="geometry">
            <Array as="points">
              <mxPoint x="578" y="635" />
            </Array>
          </mxGeometry>
        </mxCell>
        <mxCell id="303ed1de8c2c98b4-87" style="edgeStyle=orthogonalEdgeStyle;html=1;startSize=6;endFill=0;endSize=6;strokeWidth=2;fontSize=17;rounded=0;entryX=1;entryY=0.5;endArrow=none;fillColor=#F45B69;strokeColor=#028090;labelBackgroundColor=#114B5F;fontColor=#E4FDE1;" parent="1" source="303ed1de8c2c98b4-5" target="303ed1de8c2c98b4-31" edge="1">
          <mxGeometry relative="1" as="geometry">
            <Array as="points">
              <mxPoint x="578" y="745" />
            </Array>
          </mxGeometry>
        </mxCell>
        <mxCell id="303ed1de8c2c98b4-88" style="edgeStyle=orthogonalEdgeStyle;html=1;startSize=6;endFill=0;endSize=6;strokeWidth=2;fontSize=17;rounded=0;endArrow=none;entryX=0;entryY=0.5;entryDx=0;entryDy=0;exitX=1;exitY=0.5;exitDx=0;exitDy=0;fillColor=#F45B69;strokeColor=#028090;labelBackgroundColor=#114B5F;fontColor=#E4FDE1;" parent="1" source="303ed1de8c2c98b4-41" target="0YRCD2aHjjw4s4wfSnp9-1" edge="1">
          <mxGeometry relative="1" as="geometry">
            <Array as="points" />
          </mxGeometry>
        </mxCell>
        <mxCell id="303ed1de8c2c98b4-89" style="edgeStyle=orthogonalEdgeStyle;html=1;startSize=6;endFill=0;endSize=6;strokeWidth=2;fontSize=17;rounded=0;entryX=0;entryY=0.5;endArrow=none;fillColor=#F45B69;strokeColor=#028090;labelBackgroundColor=#114B5F;fontColor=#E4FDE1;" parent="1" source="303ed1de8c2c98b4-5" target="303ed1de8c2c98b4-12" edge="1">
          <mxGeometry relative="1" as="geometry">
            <Array as="points">
              <mxPoint x="578" y="525" />
            </Array>
          </mxGeometry>
        </mxCell>
        <mxCell id="303ed1de8c2c98b4-90" style="edgeStyle=orthogonalEdgeStyle;html=1;startSize=6;endFill=0;endSize=6;strokeWidth=2;fontSize=17;rounded=0;entryX=0;entryY=0.5;endArrow=none;fillColor=#F45B69;strokeColor=#028090;labelBackgroundColor=#114B5F;fontColor=#E4FDE1;" parent="1" source="303ed1de8c2c98b4-5" target="303ed1de8c2c98b4-22" edge="1">
          <mxGeometry relative="1" as="geometry">
            <Array as="points">
              <mxPoint x="578" y="635" />
            </Array>
          </mxGeometry>
        </mxCell>
        <mxCell id="303ed1de8c2c98b4-91" style="edgeStyle=orthogonalEdgeStyle;html=1;startSize=6;endFill=0;endSize=6;strokeWidth=2;fontSize=17;rounded=0;entryX=0;entryY=0.5;endArrow=none;fillColor=#F45B69;strokeColor=#028090;labelBackgroundColor=#114B5F;fontColor=#E4FDE1;" parent="1" target="303ed1de8c2c98b4-76" edge="1">
          <mxGeometry relative="1" as="geometry">
            <Array as="points">
              <mxPoint x="578" y="745" />
            </Array>
            <mxPoint x="578" y="860" as="sourcePoint" />
          </mxGeometry>
        </mxCell>
        <mxCell id="303ed1de8c2c98b4-92" style="edgeStyle=orthogonalEdgeStyle;html=1;startSize=6;endFill=0;endSize=6;strokeWidth=2;fontSize=17;rounded=0;endArrow=none;entryX=1;entryY=0.5;fillColor=#F45B69;strokeColor=#028090;labelBackgroundColor=#114B5F;fontColor=#E4FDE1;" parent="1" source="303ed1de8c2c98b4-6" target="303ed1de8c2c98b4-13" edge="1">
          <mxGeometry relative="1" as="geometry">
            <Array as="points">
              <mxPoint x="892" y="525" />
            </Array>
          </mxGeometry>
        </mxCell>
        <mxCell id="303ed1de8c2c98b4-93" style="edgeStyle=orthogonalEdgeStyle;html=1;startSize=6;endFill=0;endSize=6;strokeWidth=2;fontSize=17;rounded=0;endArrow=none;entryX=1;entryY=0.5;fillColor=#F45B69;strokeColor=#028090;labelBackgroundColor=#114B5F;fontColor=#E4FDE1;" parent="1" source="303ed1de8c2c98b4-6" target="303ed1de8c2c98b4-23" edge="1">
          <mxGeometry relative="1" as="geometry">
            <Array as="points">
              <mxPoint x="893" y="635" />
            </Array>
          </mxGeometry>
        </mxCell>
        <mxCell id="303ed1de8c2c98b4-94" style="edgeStyle=orthogonalEdgeStyle;html=1;startSize=6;endFill=0;endSize=6;strokeWidth=2;fontSize=17;rounded=0;endArrow=none;entryX=1;entryY=0.5;fillColor=#F45B69;strokeColor=#028090;labelBackgroundColor=#114B5F;fontColor=#E4FDE1;" parent="1" source="303ed1de8c2c98b4-6" target="303ed1de8c2c98b4-33" edge="1">
          <mxGeometry relative="1" as="geometry">
            <Array as="points">
              <mxPoint x="892" y="745" />
            </Array>
          </mxGeometry>
        </mxCell>
        <mxCell id="303ed1de8c2c98b4-95" style="edgeStyle=orthogonalEdgeStyle;html=1;startSize=6;endFill=0;endSize=6;strokeWidth=2;fontSize=17;rounded=0;endArrow=none;entryX=1;entryY=0.5;fillColor=#F45B69;strokeColor=#028090;labelBackgroundColor=#114B5F;fontColor=#E4FDE1;" parent="1" source="303ed1de8c2c98b4-6" target="303ed1de8c2c98b4-75" edge="1">
          <mxGeometry relative="1" as="geometry">
            <Array as="points">
              <mxPoint x="892" y="855" />
            </Array>
          </mxGeometry>
        </mxCell>
        <mxCell id="303ed1de8c2c98b4-96" style="edgeStyle=orthogonalEdgeStyle;html=1;startSize=6;endFill=0;endSize=6;strokeWidth=2;fontSize=17;rounded=0;endArrow=none;entryX=0;entryY=0.5;fillColor=#F45B69;strokeColor=#028090;labelBackgroundColor=#114B5F;fontColor=#E4FDE1;" parent="1" source="303ed1de8c2c98b4-6" target="303ed1de8c2c98b4-14" edge="1">
          <mxGeometry relative="1" as="geometry">
            <Array as="points">
              <mxPoint x="892" y="525" />
            </Array>
          </mxGeometry>
        </mxCell>
        <mxCell id="303ed1de8c2c98b4-97" style="edgeStyle=orthogonalEdgeStyle;html=1;startSize=6;endFill=0;endSize=6;strokeWidth=2;fontSize=17;rounded=0;endArrow=none;entryX=0;entryY=0.5;fillColor=#F45B69;strokeColor=#028090;labelBackgroundColor=#114B5F;fontColor=#E4FDE1;" parent="1" source="303ed1de8c2c98b4-6" target="303ed1de8c2c98b4-24" edge="1">
          <mxGeometry relative="1" as="geometry">
            <Array as="points">
              <mxPoint x="892" y="635" />
            </Array>
          </mxGeometry>
        </mxCell>
        <mxCell id="303ed1de8c2c98b4-98" style="edgeStyle=orthogonalEdgeStyle;html=1;startSize=6;endFill=0;endSize=6;strokeWidth=2;fontSize=17;rounded=0;endArrow=none;entryX=0;entryY=0.5;fillColor=#F45B69;strokeColor=#028090;labelBackgroundColor=#114B5F;fontColor=#E4FDE1;" parent="1" source="303ed1de8c2c98b4-6" target="303ed1de8c2c98b4-74" edge="1">
          <mxGeometry relative="1" as="geometry">
            <Array as="points">
              <mxPoint x="892" y="745" />
            </Array>
          </mxGeometry>
        </mxCell>
        <mxCell id="303ed1de8c2c98b4-99" style="edgeStyle=orthogonalEdgeStyle;html=1;startSize=6;endFill=0;endSize=6;strokeWidth=2;fontSize=17;rounded=0;endArrow=none;entryX=1;entryY=0.5;fillColor=#F45B69;strokeColor=#028090;labelBackgroundColor=#114B5F;fontColor=#E4FDE1;" parent="1" source="303ed1de8c2c98b4-7" target="303ed1de8c2c98b4-15" edge="1">
          <mxGeometry relative="1" as="geometry">
            <Array as="points">
              <mxPoint x="255" y="525" />
            </Array>
          </mxGeometry>
        </mxCell>
        <mxCell id="303ed1de8c2c98b4-100" style="edgeStyle=orthogonalEdgeStyle;html=1;startSize=6;endFill=0;endSize=6;strokeWidth=2;fontSize=17;rounded=0;endArrow=none;entryX=1;entryY=0.5;fillColor=#F45B69;strokeColor=#028090;labelBackgroundColor=#114B5F;fontColor=#E4FDE1;" parent="1" source="303ed1de8c2c98b4-7" target="303ed1de8c2c98b4-69" edge="1">
          <mxGeometry relative="1" as="geometry">
            <Array as="points">
              <mxPoint x="255" y="635" />
            </Array>
          </mxGeometry>
        </mxCell>
        <mxCell id="303ed1de8c2c98b4-101" style="edgeStyle=orthogonalEdgeStyle;html=1;startSize=6;endFill=0;endSize=6;strokeWidth=2;fontSize=17;rounded=0;endArrow=none;entryX=0;entryY=0.5;fillColor=#F45B69;strokeColor=#028090;labelBackgroundColor=#114B5F;fontColor=#E4FDE1;" parent="1" source="303ed1de8c2c98b4-7" target="303ed1de8c2c98b4-16" edge="1">
          <mxGeometry relative="1" as="geometry">
            <Array as="points">
              <mxPoint x="255" y="525" />
            </Array>
          </mxGeometry>
        </mxCell>
        <mxCell id="303ed1de8c2c98b4-102" style="edgeStyle=orthogonalEdgeStyle;html=1;startSize=6;endFill=0;endSize=6;strokeWidth=2;fontSize=17;rounded=0;endArrow=none;entryX=0;entryY=0.5;fillColor=#F45B69;strokeColor=#028090;labelBackgroundColor=#114B5F;fontColor=#E4FDE1;" parent="1" source="303ed1de8c2c98b4-7" target="303ed1de8c2c98b4-70" edge="1">
          <mxGeometry relative="1" as="geometry">
            <Array as="points">
              <mxPoint x="255" y="635" />
            </Array>
          </mxGeometry>
        </mxCell>
        <mxCell id="303ed1de8c2c98b4-103" style="edgeStyle=orthogonalEdgeStyle;html=1;startSize=6;endFill=0;endSize=6;strokeWidth=2;fontSize=17;rounded=0;endArrow=none;entryX=1;entryY=0.5;fillColor=#F45B69;strokeColor=#028090;labelBackgroundColor=#114B5F;fontColor=#E4FDE1;" parent="1" source="303ed1de8c2c98b4-8" target="303ed1de8c2c98b4-17" edge="1">
          <mxGeometry relative="1" as="geometry">
            <Array as="points">
              <mxPoint x="1195" y="525" />
            </Array>
          </mxGeometry>
        </mxCell>
        <mxCell id="303ed1de8c2c98b4-104" style="edgeStyle=orthogonalEdgeStyle;html=1;startSize=6;endFill=0;endSize=6;strokeWidth=2;fontSize=17;rounded=0;endArrow=none;entryX=0;entryY=0.5;fillColor=#F45B69;strokeColor=#028090;labelBackgroundColor=#114B5F;fontColor=#E4FDE1;" parent="1" source="303ed1de8c2c98b4-8" target="303ed1de8c2c98b4-18" edge="1">
          <mxGeometry relative="1" as="geometry">
            <Array as="points">
              <mxPoint x="1195" y="525" />
            </Array>
          </mxGeometry>
        </mxCell>
        <mxCell id="303ed1de8c2c98b4-105" style="edgeStyle=orthogonalEdgeStyle;html=1;startSize=6;endFill=0;endSize=6;strokeWidth=2;fontSize=17;rounded=0;endArrow=none;entryX=1;entryY=0.5;fillColor=#F45B69;strokeColor=#028090;labelBackgroundColor=#114B5F;fontColor=#E4FDE1;" parent="1" source="303ed1de8c2c98b4-8" target="303ed1de8c2c98b4-27" edge="1">
          <mxGeometry relative="1" as="geometry">
            <Array as="points">
              <mxPoint x="1195" y="635" />
            </Array>
          </mxGeometry>
        </mxCell>
        <mxCell id="303ed1de8c2c98b4-106" style="edgeStyle=orthogonalEdgeStyle;html=1;startSize=6;endFill=0;endSize=6;strokeWidth=2;fontSize=17;rounded=0;endArrow=none;entryX=1;entryY=0.5;fillColor=#F45B69;strokeColor=#028090;labelBackgroundColor=#114B5F;fontColor=#E4FDE1;" parent="1" source="303ed1de8c2c98b4-8" target="303ed1de8c2c98b4-37" edge="1">
          <mxGeometry relative="1" as="geometry">
            <Array as="points">
              <mxPoint x="1195" y="740" />
              <mxPoint x="1182" y="740" />
            </Array>
          </mxGeometry>
        </mxCell>
        <mxCell id="303ed1de8c2c98b4-109" style="edgeStyle=orthogonalEdgeStyle;html=1;startSize=6;endFill=0;endSize=6;strokeWidth=2;fontSize=17;rounded=0;endArrow=none;entryX=1;entryY=0.5;fillColor=#F45B69;strokeColor=#028090;labelBackgroundColor=#114B5F;fontColor=#E4FDE1;" parent="1" source="303ed1de8c2c98b4-9" target="303ed1de8c2c98b4-19" edge="1">
          <mxGeometry relative="1" as="geometry">
            <Array as="points">
              <mxPoint x="1495" y="525" />
            </Array>
          </mxGeometry>
        </mxCell>
        <mxCell id="303ed1de8c2c98b4-110" style="edgeStyle=orthogonalEdgeStyle;html=1;startSize=6;endFill=0;endSize=6;strokeWidth=2;fontSize=17;rounded=0;endArrow=none;entryX=1;entryY=0.5;fillColor=#F45B69;strokeColor=#028090;labelBackgroundColor=#114B5F;fontColor=#E4FDE1;" parent="1" source="303ed1de8c2c98b4-9" target="303ed1de8c2c98b4-29" edge="1">
          <mxGeometry relative="1" as="geometry">
            <Array as="points">
              <mxPoint x="1495" y="635" />
            </Array>
          </mxGeometry>
        </mxCell>
        <mxCell id="303ed1de8c2c98b4-111" style="edgeStyle=orthogonalEdgeStyle;html=1;startSize=6;endFill=0;endSize=6;strokeWidth=2;fontSize=17;rounded=0;endArrow=none;entryX=1;entryY=0.5;fillColor=#F45B69;strokeColor=#028090;labelBackgroundColor=#114B5F;fontColor=#E4FDE1;" parent="1" source="303ed1de8c2c98b4-9" target="303ed1de8c2c98b4-39" edge="1">
          <mxGeometry relative="1" as="geometry">
            <mxPoint x="1680" y="740" as="targetPoint" />
            <Array as="points">
              <mxPoint x="1495" y="580" />
              <mxPoint x="1495" y="745" />
            </Array>
          </mxGeometry>
        </mxCell>
        <mxCell id="303ed1de8c2c98b4-112" style="edgeStyle=orthogonalEdgeStyle;html=1;startSize=6;endFill=0;endSize=6;strokeWidth=2;fontSize=17;rounded=0;endArrow=none;entryX=1;entryY=0.5;fillColor=#F45B69;strokeColor=#028090;labelBackgroundColor=#114B5F;fontColor=#E4FDE1;" parent="1" source="303ed1de8c2c98b4-9" target="303ed1de8c2c98b4-49" edge="1">
          <mxGeometry relative="1" as="geometry">
            <Array as="points">
              <mxPoint x="1495" y="855" />
            </Array>
          </mxGeometry>
        </mxCell>
        <mxCell id="303ed1de8c2c98b4-113" style="edgeStyle=orthogonalEdgeStyle;html=1;startSize=6;endFill=0;endSize=6;strokeWidth=2;fontSize=17;rounded=0;endArrow=none;entryX=1;entryY=0.5;fillColor=#F45B69;strokeColor=#028090;labelBackgroundColor=#114B5F;fontColor=#E4FDE1;" parent="1" source="303ed1de8c2c98b4-9" target="303ed1de8c2c98b4-59" edge="1">
          <mxGeometry relative="1" as="geometry">
            <Array as="points">
              <mxPoint x="1495" y="965" />
            </Array>
          </mxGeometry>
        </mxCell>
        <mxCell id="303ed1de8c2c98b4-114" style="edgeStyle=orthogonalEdgeStyle;html=1;startSize=6;endFill=0;endSize=6;strokeWidth=2;fontSize=17;rounded=0;endArrow=none;entryX=0;entryY=0.5;fillColor=#F45B69;strokeColor=#028090;labelBackgroundColor=#114B5F;fontColor=#E4FDE1;" parent="1" source="303ed1de8c2c98b4-9" target="303ed1de8c2c98b4-20" edge="1">
          <mxGeometry relative="1" as="geometry">
            <Array as="points">
              <mxPoint x="1495" y="525" />
            </Array>
          </mxGeometry>
        </mxCell>
        <mxCell id="303ed1de8c2c98b4-115" style="edgeStyle=orthogonalEdgeStyle;html=1;startSize=6;endFill=0;endSize=6;strokeWidth=2;fontSize=17;rounded=0;endArrow=none;entryX=0;entryY=0.5;fillColor=#F45B69;strokeColor=#028090;labelBackgroundColor=#114B5F;fontColor=#E4FDE1;" parent="1" source="303ed1de8c2c98b4-9" target="303ed1de8c2c98b4-30" edge="1">
          <mxGeometry relative="1" as="geometry">
            <Array as="points">
              <mxPoint x="1495" y="635" />
            </Array>
          </mxGeometry>
        </mxCell>
        <mxCell id="303ed1de8c2c98b4-116" style="edgeStyle=orthogonalEdgeStyle;html=1;startSize=6;endFill=0;endSize=6;strokeWidth=2;fontSize=17;rounded=0;endArrow=none;entryX=0;entryY=0.5;fillColor=#F45B69;strokeColor=#028090;labelBackgroundColor=#114B5F;fontColor=#E4FDE1;" parent="1" source="303ed1de8c2c98b4-9" target="303ed1de8c2c98b4-40" edge="1">
          <mxGeometry relative="1" as="geometry">
            <Array as="points">
              <mxPoint x="1495" y="745" />
            </Array>
          </mxGeometry>
        </mxCell>
        <mxCell id="303ed1de8c2c98b4-117" style="edgeStyle=orthogonalEdgeStyle;html=1;startSize=6;endFill=0;endSize=6;strokeWidth=2;fontSize=17;rounded=0;endArrow=none;entryX=0;entryY=0.5;fillColor=#F45B69;strokeColor=#028090;labelBackgroundColor=#114B5F;fontColor=#E4FDE1;" parent="1" source="303ed1de8c2c98b4-9" target="303ed1de8c2c98b4-50" edge="1">
          <mxGeometry relative="1" as="geometry">
            <Array as="points">
              <mxPoint x="1495" y="855" />
            </Array>
          </mxGeometry>
        </mxCell>
        <mxCell id="303ed1de8c2c98b4-118" style="edgeStyle=orthogonalEdgeStyle;html=1;startSize=6;endFill=0;endSize=6;strokeWidth=2;fontSize=17;rounded=0;endArrow=none;entryX=0;entryY=0.5;fillColor=#F45B69;strokeColor=#028090;labelBackgroundColor=#114B5F;fontColor=#E4FDE1;" parent="1" source="303ed1de8c2c98b4-9" target="303ed1de8c2c98b4-60" edge="1">
          <mxGeometry relative="1" as="geometry">
            <Array as="points">
              <mxPoint x="1495" y="965" />
            </Array>
          </mxGeometry>
        </mxCell>
        <mxCell id="0YRCD2aHjjw4s4wfSnp9-1" value="记账提醒" style="whiteSpace=wrap;html=1;rounded=1;shadow=1;strokeWidth=2;fontSize=17;align=center;fillColor=#F45B69;strokeColor=#028090;fontColor=#E4FDE1;" vertex="1" parent="1">
          <mxGeometry x="590" y="815" width="125" height="80" as="geometry" />
        </mxCell>
        <mxCell id="0YRCD2aHjjw4s4wfSnp9-3" value="账目管理&lt;br style=&quot;font-size: 17px;&quot;&gt;（新增、删除、修改）" style="whiteSpace=wrap;html=1;rounded=1;shadow=1;strokeWidth=2;fontSize=17;align=center;fillColor=#F45B69;strokeColor=#028090;fontColor=#E4FDE1;" vertex="1" parent="1">
          <mxGeometry x="1207" y="485" width="125" height="80" as="geometry" />
        </mxCell>
        <mxCell id="0YRCD2aHjjw4s4wfSnp9-4" value="图片管理" style="whiteSpace=wrap;html=1;rounded=1;shadow=1;strokeWidth=2;fontSize=17;align=center;fillColor=#F45B69;strokeColor=#028090;fontColor=#E4FDE1;" vertex="1" parent="1">
          <mxGeometry x="1207" y="595" width="125" height="80" as="geometry" />
        </mxCell>
        <mxCell id="0YRCD2aHjjw4s4wfSnp9-5" value="账目金额管理" style="whiteSpace=wrap;html=1;rounded=1;shadow=1;strokeWidth=2;fontSize=17;align=center;fillColor=#F45B69;strokeColor=#028090;fontColor=#E4FDE1;" vertex="1" parent="1">
          <mxGeometry x="1207" y="705" width="125" height="80" as="geometry" />
        </mxCell>
        <mxCell id="0YRCD2aHjjw4s4wfSnp9-14" value="" style="endArrow=none;html=1;entryX=1;entryY=0.5;entryDx=0;entryDy=0;exitX=0;exitY=0.5;exitDx=0;exitDy=0;fillColor=#F45B69;strokeColor=#028090;strokeWidth=2;fontSize=17;labelBackgroundColor=#114B5F;fontColor=#E4FDE1;" edge="1" parent="1" source="0YRCD2aHjjw4s4wfSnp9-4" target="303ed1de8c2c98b4-27">
          <mxGeometry width="50" height="50" relative="1" as="geometry">
            <mxPoint x="1360" y="700" as="sourcePoint" />
            <mxPoint x="1410" y="650" as="targetPoint" />
          </mxGeometry>
        </mxCell>
        <mxCell id="0YRCD2aHjjw4s4wfSnp9-15" value="" style="endArrow=none;html=1;fillColor=#F45B69;strokeColor=#028090;strokeWidth=2;fontSize=17;labelBackgroundColor=#114B5F;fontColor=#E4FDE1;" edge="1" parent="1">
          <mxGeometry width="50" height="50" relative="1" as="geometry">
            <mxPoint x="1182" y="740" as="sourcePoint" />
            <mxPoint x="1207" y="740" as="targetPoint" />
          </mxGeometry>
        </mxCell>
      </root>
    </mxGraphModel>
  </diagram>
</mxfile>
